<svg width="59" height="84" viewBox="0 0 59 84" fill="none" xmlns="http://www.w3.org/2000/svg">
<path d="M29.4948 0.623047C13.2876 0.623047 0.102539 13.8248 0.102539 30.0525C0.102539 45.7505 26.974 81.5162 28.1186 83.0327C28.4402 83.4655 28.9555 83.7182 29.495 83.7182C30.0344 83.7182 30.5497 83.4655 30.8713 83.0327C32.0158 81.5162 58.8874 45.7507 58.8874 30.0525C58.8871 13.8248 45.702 0.623047 29.4948 0.623047ZM29.4948 45.6329C20.9157 45.6329 13.9342 38.6425 13.9342 30.0525C13.9342 21.4626 20.9157 14.4722 29.4948 14.4722C38.0739 14.4722 45.0554 21.4626 45.0554 30.0525C45.0554 38.6425 38.0739 45.6329 29.4948 45.6329Z" fill="url(#paint0_linear)"/>
<defs>
<linearGradient id="paint0_linear" x1="-10.8737" y1="0.623046" x2="73.3655" y2="18.7134" gradientUnits="userSpaceOnUse">
<stop stop-color="#4BD8B5"/>
<stop offset="1" stop-color="#49D6DF"/>
</linearGradient>
</defs>
</svg>
